<svg xmlns="http://www.w3.org/2000/svg" width="512" height="512"><g><title>background</title><rect id="canvas_background" width="582" height="402" x="-1" y="-1" fill="none"/></g><g><title>Layer 1</title><circle id="ellipse" cx="256" cy="256" r="256" fill="#fff"/><path id="logo" fill="#343a40" d="m372.399994,168.699997c0,0 -33.300018,-26.099991 -72.699982,-29.099991l-3.5,7.099991c35.599976,8.699997 51.899994,21.199997 69,36.5c-29.400024,-15 -58.5,-29.099991 -109.100006,-29.099991s-79.700012,14.099991 -109.100006,29.099991c17.100006,-15.300003 36.5,-29.199997 69,-36.5l-3.5,-7.099991c-41.300003,3.899994 -72.699997,29.099991 -72.699997,29.099991s-37.200005,54 -43.600006,160.000015c37.5,43.299988 94.5,43.599976 94.5,43.599976l11.900009,-15.899994c-20.200012,-7 -43.099991,-19.600006 -62.800003,-42.299988c23.5,17.799988 59.099991,36.399994 116.400009,36.399994s92.799988,-18.5 116.399994,-36.399994c-19.699982,22.699982 -42.600006,35.299988 -62.799988,42.299988l11.899994,15.899994c0,0 57,-0.299988 94.5,-43.599976c-6.600006,-106.000015 -43.800018,-160.000015 -43.800018,-160.000015zm-163.699997,130.900009c-14.099991,0 -25.5,-13 -25.5,-29.100006s11.400009,-29.099991 25.5,-29.099991c14.100006,0 25.5,13 25.5,29.099991s-11.399994,29.100006 -25.5,29.100006zm94.599991,0c-14.100006,0 -25.5,-13 -25.5,-29.100006s11.399994,-29.099991 25.5,-29.099991s25.5,13 25.5,29.099991s-11.5,29.100006 -25.5,29.100006z"/></g></svg>