<svg xmlns="http://www.w3.org/2000/svg" width="1000" height="1000"><title/><g><title>background</title><rect id="canvas_background" width="582" height="402" x="-1" y="-1" fill="none"/></g><g><title>Layer 1</title><path id="svg_2" fill="#fff" d="m500,1000l0,0c-276.100006,0 -500,-223.900024 -500,-500l0,0c0,-276.100006 223.899994,-500 500,-500l0,0c276.100037,0 500,223.899994 500,500l0,0c0,276.099976 -223.900024,500 -500,500z" class="st0"/><path id="Fill-3" fill="#343a40" d="m614.599976,604.200012c-28.700012,0 -52.099976,-23.400024 -52.099976,-52.099976c0,-28.700012 23.399963,-52.100006 52.099976,-52.100006s52.099976,23.399994 52.099976,52.100006c0.000061,28.699951 -23.399963,52.099976 -52.099976,52.099976m9.200012,85.5c-35.599976,35.5 -103.700012,38.299988 -123.699982,38.299988c-20,0 -88.199982,-2.799988 -123.699982,-38.299988c-5.300018,-5.299988 -5.300018,-13.799988 0,-19.100037c5.299988,-5.299988 13.799988,-5.299988 19.099976,0c22.399994,22.400024 70.299988,30.400024 104.600006,30.400024c34.199982,0 82.199982,-8 104.600006,-30.400024c5.299988,-5.299988 13.799988,-5.299988 19.099976,0c5.200012,5.300049 5.200012,13.800049 0,19.100037m-290.5,-137.600037c0,-28.700012 23.399994,-52.100006 52.100006,-52.100006c28.699982,0 52.099976,23.399994 52.099976,52.100006c0,28.700012 -23.399994,52.099976 -52.099976,52.099976c-28.699982,0.000061 -52.100006,-23.399963 -52.100006,-52.099976m500,-52.099976c0,-40.299988 -32.599976,-72.899994 -72.900024,-72.899994c-19.699951,0 -37.5,7.799988 -50.599976,20.5c-49.799988,-36 -118.5,-59.200012 -195,-61.899994l33.200012,-156.300018l108.5,23.099991c1.299988,27.599991 23.900024,49.599991 51.799988,49.599991c28.799988,0 52.100037,-23.299988 52.100037,-52.099991c0,-28.799988 -23.300049,-52.099991 -52.100037,-52.099991c-20.5,0 -38,11.900009 -46.5,29.100006l-121.200012,-25.800003c-3.399963,-0.699997 -6.899963,-0.099991 -9.799988,1.800003c-2.899963,1.899994 -4.899963,4.800003 -5.599976,8.199997l-36.400024,171.500015c-0.199982,1 0,1.899994 0,2.899994c-77.899994,2 -147.899963,25.299988 -198.5,61.799988c-13.099976,-12.600006 -30.799988,-20.299988 -50.399994,-20.299988c-40.299988,0 -72.899994,32.699982 -72.899994,72.899994c0,29.599976 17.699997,55.099976 43.100006,66.5c-1.100006,7.200012 -1.700012,14.599976 -1.700012,22.099976c0,112.200012 130.600006,203.100037 291.700012,203.100037c161.100006,0 291.700043,-90.900024 291.700043,-203.100037c0,-7.399963 -0.600037,-14.699951 -1.700012,-21.899963c25.299988,-11.400024 43.199951,-36.900024 43.199951,-66.700012" class="st1"/></g></svg>