<svg xmlns="http://www.w3.org/2000/svg" width="48" height="48"><g><title>background</title><rect id="canvas_background" width="582" height="402" x="-1" y="-1" fill="none"/></g><g><title>Layer 1</title><circle id="svg_1" cx="24" cy="24" r="24" fill="#fff"/><path id="svg_2" fill="#343a40" d="m35.200001,18.5c0,-0.1 0,-0.200001 -0.100002,-0.299999c0,0 0,-0.1 0,-0.1c-0.299999,-0.9 -1.099998,-1.5 -2.099998,-1.5l0.200001,0c0,0 -3.900002,-0.6 -9.200001,-0.6c-5.200001,0 -9.2,0.6 -9.2,0.6l0.2,0c-1,0 -1.8,0.6 -2.1,1.5c0,0 0,0.1 0,0.1c0,0.099998 0,0.199999 -0.099999,0.299999c-0.1,1 -0.400001,3.1 -0.400001,5.5c0,2.4 0.3,4.5 0.400001,5.5c0,0.1 0,0.200001 0.099999,0.299999c0,0 0,0.1 0,0.1c0.3,0.9 1.1,1.5 2.1,1.5l-0.2,0c0,0 3.900001,0.6 9.2,0.6c5.200001,0 9.200001,-0.6 9.200001,-0.6l-0.200001,0c1,0 1.799999,-0.6 2.099998,-1.5c0,0 0,-0.1 0,-0.1c0,-0.099998 0,-0.199999 0.100002,-0.299999c0.099998,-1 0.399998,-3.1 0.399998,-5.5c0,-2.4 -0.199997,-4.5 -0.399998,-5.5zm-7.800001,6l-4.699999,3.4c-0.1,0.1 -0.200001,0.1 -0.300001,0.1c-0.1,0 -0.199999,0 -0.299999,-0.1c-0.200001,-0.1 -0.300001,-0.299999 -0.300001,-0.5l0,-6.799999c0,-0.200001 0.1,-0.4 0.300001,-0.5c0.199999,-0.1 0.4,-0.1 0.6,0l4.699999,3.4c0.1,0.1 0.200001,0.299999 0.200001,0.5c0.1,0.200001 0,0.4 -0.200001,0.5z"/></g></svg>